<!DOCTYPE svg PUBLIC "-//W3C//DTD SVG 1.1//EN" "http://www.w3.org/Graphics/SVG/1.1/DTD/svg11.dtd">
<!-- Uploaded to: SVG Repo, www.svgrepo.com, Transformed by: SVG Repo Mixer Tools -->
<svg fill="#207d60" height="800px" width="800px" version="1.1" id="Layer_1" xmlns="http://www.w3.org/2000/svg" xmlns:xlink="http://www.w3.org/1999/xlink" viewBox="0 0 512.001 512.001" xml:space="preserve">
<g id="SVGRepo_bgCarrier" stroke-width="0"/>
<g id="SVGRepo_tracerCarrier" stroke-linecap="round" stroke-linejoin="round"/>
<g id="SVGRepo_iconCarrier"> <g> <g> <path d="M193.651,421.768H24.267C10.865,421.768,0,432.633,0,446.035v35.555c0,13.402,10.865,24.267,24.267,24.267h235.251 C230.602,485.714,207.144,456.96,193.651,421.768z"/> </g> </g> <g> <g> <path d="M197.312,283.227H68.303c-13.402,0-24.267,10.865-24.267,24.267v35.555c0,13.402,10.865,24.267,24.267,24.267h113.693 c-1.529-27.22,2.837-54.689,13.964-80.999C196.399,285.28,196.855,284.254,197.312,283.227z"/> </g> </g> <g> <g> <path d="M274.41,144.684H33.84c-13.402,0-24.267,10.865-24.267,24.267v35.555c0,13.402,10.865,24.267,24.267,24.267h200.882 c0.032-0.032,0.064-0.066,0.096-0.099c17.661-17.661,38.988-31.881,63.86-41.338v-18.385 C298.677,155.549,287.813,144.684,274.41,144.684z"/> </g> </g> <g> <g> <path d="M293.484,6.143H52.913c-13.402,0-24.267,10.865-24.267,24.267v35.555c0,13.401,10.865,24.267,24.267,24.267h240.571 c13.402,0,24.267-10.865,24.267-24.267V30.41C317.751,17.008,306.887,6.143,293.484,6.143z"/> </g> </g> <g> <g> <path d="M341.032,317.1c0,6.533,5.857,10.588,14.418,14.193v-26.809C345.312,306.512,341.032,311.694,341.032,317.1z"/> </g> </g> <g> <g> <path d="M368.065,372.97v30.188c7.661-1.801,13.743-6.082,13.743-14.193C381.808,381.532,376.175,376.8,368.065,372.97z"/> </g> </g> <g> <g> <path d="M363.07,207.996c-82.253,0-148.931,66.679-148.931,148.931c0,82.252,66.678,148.931,148.931,148.931 s148.931-66.678,148.931-148.931C512,274.674,445.321,207.996,363.07,207.996z M370.317,434.473v6.534 c0,3.154-4.281,6.082-8.561,6.082c-4.955,0-8.56-2.929-8.56-6.082v-5.632c-27.034-0.902-49.113-14.868-49.113-29.287 c0-7.661,6.759-18.925,15.32-18.925c9.462,0,17.122,13.292,33.793,16.221v-36.496c-20.726-7.884-45.058-17.572-45.058-46.409 c0-28.611,21.177-42.353,45.058-45.732v-6.307c0-3.155,3.605-6.083,8.56-6.083c4.281,0,8.561,2.929,8.561,6.083v5.631 c13.969,0.451,40.326,4.056,40.326,19.6c0,6.083-4.055,18.474-13.968,18.474c-7.434,0-11.714-7.209-26.359-8.335v32.891 c20.501,7.661,44.382,18.249,44.382,48.662C414.699,413.298,396.677,430.193,370.317,434.473z"/> </g> </g> </g>
</svg>